<svg width="280" height="280" viewBox="0 0 280 280" fill="none" xmlns="http://www.w3.org/2000/svg">
<path fill-rule="evenodd" clip-rule="evenodd" d="M210 0H70C31.5035 0 0 31.4895 0 70V210C0 248.496 31.5035 280 70 280H210C248.496 280 280 248.496 280 210V70C280 31.4895 248.496 0 210 0ZM139.999 198.331C107.778 198.331 81.6643 172.207 81.6643 140C81.6643 107.779 107.778 81.665 139.999 81.665C172.206 81.665 198.333 107.779 198.333 140C198.333 172.207 172.206 198.331 139.999 198.331ZM198.333 64.1651C198.333 73.8286 206.159 81.6651 215.833 81.6651C225.507 81.6651 233.333 73.8286 233.333 64.1651C233.333 54.5015 225.507 46.665 215.833 46.665C206.159 46.665 198.333 54.5015 198.333 64.1651Z" fill="#333333"/>
</svg>
