<svg width="287" height="249" viewBox="0 0 287 249" fill="none" xmlns="http://www.w3.org/2000/svg">
<path d="M256.707 61.8806C256.896 64.6028 256.896 67.3095 256.896 70.0162C256.896 152.85 197.891 248.3 90.0577 248.3C56.8357 248.3 25.972 238.018 0 220.16C4.71689 220.735 9.25909 220.938 14.1652 220.938C41.5785 220.938 66.8081 211.044 86.9714 194.166C61.1886 193.591 39.5841 175.546 32.1302 150.719C35.7552 151.295 39.3948 151.684 43.2091 151.684C48.4646 151.684 53.7493 150.906 58.6554 149.552C31.7662 143.735 11.6321 118.519 11.6321 88.0608V87.283C19.4499 91.9342 28.5197 94.8431 38.1282 95.232C22.3325 84.0008 11.9815 64.7895 11.9815 43.0582C11.9815 31.4225 14.8786 20.7513 19.9594 11.449C48.8286 49.4516 92.2269 74.294 140.881 77.0163C139.978 72.3495 139.425 67.5117 139.425 62.6583C139.425 28.1247 165.572 0 198.066 0C214.954 0 230.196 7.56007 240.911 19.7868C254.159 17.0646 266.854 11.8223 278.122 4.65115C273.769 19.1957 264.495 31.4225 252.339 39.1848C264.146 37.8159 275.589 34.3314 286.1 29.478C278.122 41.8915 268.15 52.9516 256.707 61.8806Z" fill="#333333"/>
</svg>
