<svg width="48" height="33" viewBox="0 0 48 33" fill="none" xmlns="http://www.w3.org/2000/svg">
<g clip-path="url(#clip0_215_379)">
<path d="M36.2847 26.75H35.0347V16.75C35.0334 13.9837 34.0128 11.3148 32.1681 9.25335C30.3234 7.19189 27.7839 5.88237 25.0347 5.575V4.25C25.0347 3.91848 24.903 3.60054 24.6686 3.36612C24.4341 3.1317 24.1162 3 23.7847 3C23.4531 3 23.1352 3.1317 22.9008 3.36612C22.6664 3.60054 22.5347 3.91848 22.5347 4.25V5.575C19.7855 5.88237 17.2459 7.19189 15.4012 9.25335C13.5565 11.3148 12.536 13.9837 12.5347 16.75V26.75H11.2847C10.9531 26.75 10.6352 26.8817 10.4008 27.1161C10.1664 27.3505 10.0347 27.6685 10.0347 28C10.0347 28.3315 10.1664 28.6495 10.4008 28.8839C10.6352 29.1183 10.9531 29.25 11.2847 29.25H18.9597C19.2475 30.3092 19.8759 31.2443 20.7479 31.9109C21.6199 32.5776 22.687 32.9388 23.7847 32.9388C24.8823 32.9388 25.9494 32.5776 26.8214 31.9109C27.6934 31.2443 28.3218 30.3092 28.6097 29.25H36.2847C36.6162 29.25 36.9341 29.1183 37.1686 28.8839C37.403 28.6495 37.5347 28.3315 37.5347 28C37.5347 27.6685 37.403 27.3505 37.1686 27.1161C36.9341 26.8817 36.6162 26.75 36.2847 26.75ZM23.7847 30.5C23.3484 30.4974 22.9204 30.3806 22.5432 30.1613C22.166 29.942 21.8528 29.6278 21.6347 29.25H25.9347C25.7165 29.6278 25.4033 29.942 25.0261 30.1613C24.649 30.3806 24.221 30.4974 23.7847 30.5ZM15.0347 26.75V16.75C15.0347 14.4294 15.9565 12.2038 17.5975 10.5628C19.2384 8.92187 21.464 8 23.7847 8C26.1053 8 28.3309 8.92187 29.9719 10.5628C31.6128 12.2038 32.5347 14.4294 32.5347 16.75V26.75H15.0347Z" fill="#4A3AFF"/>
</g>
<path d="M15.5793 4.10743C14.3256 4.40434 13.0289 5.2066 11.8415 6.4199C10.6542 7.63321 9.62565 9.20714 8.87673 10.9567C8.12781 12.7063 7.68967 14.5587 7.61379 16.2964C7.53792 18.0341 7.82747 19.5848 8.44841 20.7661" stroke="#4A3AFF" stroke-opacity="0.4" stroke-width="2" stroke-linecap="round" stroke-linejoin="round"/>
<path d="M10.5798 2.10743C9.32608 2.40434 8.02935 3.2066 6.84202 4.4199C5.6547 5.63321 4.62613 7.20714 3.87722 8.9567C3.1283 10.7063 2.69015 12.5587 2.61428 14.2964C2.5384 16.0341 2.82795 17.5848 3.44889 18.7661" stroke="#4A3AFF" stroke-opacity="0.4" stroke-width="2" stroke-linecap="round" stroke-linejoin="round"/>
<path d="M38.3286 21.2656C39.0524 20.1997 39.4664 18.7321 39.5221 17.0355C39.5778 15.3388 39.2728 13.4835 38.643 11.6876C38.0132 9.89171 37.0847 8.22991 35.9667 6.8975C34.8486 5.56509 33.5876 4.61745 32.3316 4.16595" stroke="#4A3AFF" stroke-opacity="0.4" stroke-width="2" stroke-linecap="round" stroke-linejoin="round"/>
<path d="M43.3291 19.2656C44.0529 18.1997 44.4669 16.7321 44.5226 15.0355C44.5783 13.3388 44.2733 11.4835 43.6435 9.68759C43.0136 7.89171 42.0852 6.22991 40.9671 4.8975C39.8491 3.56509 38.588 2.61745 37.3321 2.16595" stroke="#4A3AFF" stroke-opacity="0.4" stroke-width="2" stroke-linecap="round" stroke-linejoin="round"/>
<defs>
<clipPath id="clip0_215_379">
<rect width="30" height="30" fill="white" transform="translate(8.78467 3)"/>
</clipPath>
</defs>
</svg>
