<svg width="48" height="33" viewBox="0 0 28 30" fill="none" xmlns="http://www.w3.org/2000/svg">
<path d="M26.25 23.75H25V13.75C24.9987 10.9837 23.9782 8.31481 22.1335 6.25335C20.2888 4.19189 17.7492 2.88237 15 2.575V1.25C15 0.918479 14.8683 0.600537 14.6339 0.366117C14.3995 0.131696 14.0815 0 13.75 0C13.4185 0 13.1005 0.131696 12.8661 0.366117C12.6317 0.600537 12.5 0.918479 12.5 1.25V2.575C9.7508 2.88237 7.21123 4.19189 5.36652 6.25335C3.52182 8.31481 2.50131 10.9837 2.5 13.75V23.75H1.25C0.918479 23.75 0.600537 23.8817 0.366116 24.1161C0.131696 24.3505 0 24.6685 0 25C0 25.3315 0.131696 25.6495 0.366116 25.8839C0.600537 26.1183 0.918479 26.25 1.25 26.25H8.925C9.21285 27.3092 9.84125 28.2443 10.7132 28.9109C11.5852 29.5776 12.6524 29.9388 13.75 29.9388C14.8476 29.9388 15.9148 29.5776 16.7868 28.9109C17.6587 28.2443 18.2871 27.3092 18.575 26.25H26.25C26.5815 26.25 26.8995 26.1183 27.1339 25.8839C27.3683 25.6495 27.5 25.3315 27.5 25C27.5 24.6685 27.3683 24.3505 27.1339 24.1161C26.8995 23.8817 26.5815 23.75 26.25 23.75ZM13.75 27.5C13.3137 27.4974 12.8857 27.3806 12.5085 27.1613C12.1314 26.942 11.8181 26.6278 11.6 26.25H15.9C15.6819 26.6278 15.3686 26.942 14.9915 27.1613C14.6143 27.3806 14.1863 27.4974 13.75 27.5ZM5 23.75V13.75C5 11.4294 5.92187 9.20376 7.56282 7.56282C9.20376 5.92187 11.4294 5 13.75 5C16.0706 5 18.2962 5.92187 19.9372 7.56282C21.5781 9.20376 22.5 11.4294 22.5 13.75V23.75H5Z" fill="#4A3AFF"/>
</svg>
