<svg width="48" height="33" viewBox="0 0 38 31" fill="none" xmlns="http://www.w3.org/2000/svg">
<g clip-path="url(#clip0_215_713)">
<path d="M31.2852 24.75H30.0352V14.75C30.0338 11.9837 29.0133 9.31481 27.1686 7.25335C25.3239 5.19189 22.7844 3.88237 20.0352 3.575V2.25C20.0352 1.91848 19.9035 1.60054 19.669 1.36612C19.4346 1.1317 19.1167 1 18.7852 1C18.4536 1 18.1357 1.1317 17.9013 1.36612C17.6669 1.60054 17.5352 1.91848 17.5352 2.25V3.575C14.786 3.88237 12.2464 5.19189 10.4017 7.25335C8.55697 9.31481 7.53647 11.9837 7.53516 14.75V24.75H6.28516C5.95364 24.75 5.63569 24.8817 5.40127 25.1161C5.16685 25.3505 5.03516 25.6685 5.03516 26C5.03516 26.3315 5.16685 26.6495 5.40127 26.8839C5.63569 27.1183 5.95364 27.25 6.28516 27.25H13.9602C14.248 28.3092 14.8764 29.2443 15.7484 29.9109C16.6204 30.5776 17.6875 30.9388 18.7852 30.9388C19.8828 30.9388 20.9499 30.5776 21.8219 29.9109C22.6939 29.2443 23.3223 28.3092 23.6102 27.25H31.2852C31.6167 27.25 31.9346 27.1183 32.169 26.8839C32.4035 26.6495 32.5352 26.3315 32.5352 26C32.5352 25.6685 32.4035 25.3505 32.169 25.1161C31.9346 24.8817 31.6167 24.75 31.2852 24.75ZM18.7852 28.5C18.3489 28.4974 17.9209 28.3806 17.5437 28.1613C17.1665 27.942 16.8533 27.6278 16.6352 27.25H20.9352C20.717 27.6278 20.4038 27.942 20.0266 28.1613C19.6494 28.3806 19.2214 28.4974 18.7852 28.5ZM10.0352 24.75V14.75C10.0352 12.4294 10.957 10.2038 12.598 8.56282C14.2389 6.92187 16.4645 6 18.7852 6C21.1058 6 23.3314 6.92187 24.9723 8.56282C26.6133 10.2038 27.5352 12.4294 27.5352 14.75V24.75H10.0352Z" fill="#4A3AFF"/>
</g>
<path d="M10.5798 2.10743C9.32608 2.40434 8.02935 3.2066 6.84202 4.4199C5.6547 5.63321 4.62613 7.20714 3.87722 8.9567C3.1283 10.7063 2.69015 12.5587 2.61428 14.2964C2.5384 16.0341 2.82795 17.5848 3.44889 18.7661" stroke="#4A3AFF" stroke-opacity="0.4" stroke-width="2" stroke-linecap="round" stroke-linejoin="round"/>
<path d="M33.3291 19.2657C34.0529 18.1998 34.4669 16.7322 34.5226 15.0355C34.5783 13.3388 34.2733 11.4835 33.6435 9.68765C33.0136 7.89177 32.0852 6.22997 30.9671 4.89756C29.8491 3.56515 28.588 2.61751 27.3321 2.16601" stroke="#4A3AFF" stroke-opacity="0.4" stroke-width="2" stroke-linecap="round" stroke-linejoin="round"/>
<defs>
<clipPath id="clip0_215_713">
<rect width="30" height="30" fill="white" transform="translate(3.78516 1)"/>
</clipPath>
</defs>
</svg>
